<svg width="10" height="10" viewBox="0 0 10 10" fill="none" xmlns="http://www.w3.org/2000/svg">
<g clip-path="url(#clip0_301_2771)">
<path d="M0.356934 5C0.356934 6.23137 0.84609 7.4123 1.7168 8.283C2.5875 9.15371 3.76843 9.64286 4.99979 9.64286C6.23115 9.64286 7.41208 9.15371 8.28279 8.283C9.15349 7.4123 9.64265 6.23137 9.64265 5C9.64265 3.76864 9.15349 2.58771 8.28279 1.71701C7.41208 0.846304 6.23115 0.357147 4.99979 0.357147C3.76843 0.357147 2.5875 0.846304 1.7168 1.71701C0.84609 2.58771 0.356934 3.76864 0.356934 5Z" stroke="white" stroke-width="1.14286" stroke-linecap="round" stroke-linejoin="round"/>
<path d="M3.90479 2.90928C3.90479 3.05223 3.93294 3.19379 3.98765 3.32586C4.04235 3.45793 4.12254 3.57793 4.22362 3.67902C4.3247 3.7801 4.44471 3.86028 4.57678 3.91499C4.70885 3.9697 4.8504 3.99785 4.99336 3.99785C5.13631 3.99785 5.27786 3.9697 5.40993 3.91499C5.54201 3.86028 5.66201 3.7801 5.76309 3.67902C5.86418 3.57793 5.94436 3.45793 5.99907 3.32586C6.05377 3.19379 6.08193 3.05223 6.08193 2.90928C6.08193 2.76633 6.05377 2.62477 5.99907 2.4927C5.94436 2.36063 5.86418 2.24063 5.76309 2.13954C5.66201 2.03846 5.54201 1.95828 5.40993 1.90357C5.27786 1.84887 5.13631 1.82071 4.99336 1.82071C4.8504 1.82071 4.70885 1.84887 4.57678 1.90357C4.44471 1.95828 4.3247 2.03846 4.22362 2.13954C4.12254 2.24063 4.04235 2.36063 3.98765 2.4927C3.93294 2.62477 3.90479 2.76633 3.90479 2.90928Z" stroke="white" stroke-width="1.14286" stroke-linecap="round" stroke-linejoin="round"/>
<path d="M5.92921 6.32122L5.69689 8.17979H4.30272L4.0704 6.32122H3.60586C3.47756 6.32122 3.37354 6.21721 3.37354 6.0889V5.62424C3.37354 4.72608 4.10159 3.99799 4.99975 3.99799C5.89791 3.99799 6.62607 4.72608 6.62607 5.62424V6.0889C6.62607 6.21721 6.52206 6.32122 6.39375 6.32122H5.92921Z" stroke="white" stroke-width="1.14286" stroke-linecap="round" stroke-linejoin="round"/>
</g>
<defs>
<clipPath id="clip0_301_2771">
<rect width="10" height="10" fill="white"/>
</clipPath>
</defs>
</svg>
