<svg width="10" height="10" viewBox="0 0 10 10" fill="none" xmlns="http://www.w3.org/2000/svg">
<path d="M9.375 10H0.625C0.279825 10 0 9.75912 0 9.46197V4.30441C0 4.16172 0.0659064 4.0249 0.183125 3.92402L4.55812 0.157794C4.67537 0.0567676 4.83444 0 5.00031 0C5.16619 0 5.32525 0.0567676 5.4425 0.157794L9.8175 3.92402C9.93481 4.02479 10.0006 4.16172 10 4.30441V9.46197C10 9.75912 9.72018 10 9.375 10ZM3.75 6.23378H6.25V8.92394H8.75V4.52715L5 1.29896L1.25 4.52715V8.92394H3.75V6.23378Z" fill="white"/>
</svg>
