<svg width="10" height="11" viewBox="0 0 10 11" fill="none" xmlns="http://www.w3.org/2000/svg">
<path fill-rule="evenodd" clip-rule="evenodd" d="M5 10.909C6.32608 10.909 7.59785 10.372 8.53553 9.41604C9.47322 8.4601 10 7.16355 10 5.81164C10 4.45972 9.47322 3.16318 8.53553 2.20723C7.59785 1.25128 6.32608 0.714233 5 0.714233C3.67392 0.714233 2.40215 1.25128 1.46447 2.20723C0.526784 3.16318 0 4.45972 0 5.81164C0 7.16355 0.526784 8.4601 1.46447 9.41604C2.40215 10.372 3.67392 10.909 5 10.909ZM3.92857 7.54111C3.86995 7.54111 3.81189 7.55288 3.75773 7.57576C3.70357 7.59863 3.65435 7.63215 3.6129 7.67442C3.57144 7.71668 3.53856 7.76685 3.51613 7.82207C3.49369 7.87729 3.48214 7.93647 3.48214 7.99624C3.48214 8.05601 3.49369 8.11519 3.51613 8.17041C3.53856 8.22562 3.57144 8.2758 3.6129 8.31806C3.65435 8.36032 3.70357 8.39385 3.75773 8.41672C3.81189 8.43959 3.86995 8.45136 3.92857 8.45136H6.07143C6.13005 8.45136 6.18811 8.43959 6.24227 8.41672C6.29643 8.39385 6.34565 8.36032 6.3871 8.31806C6.42856 8.2758 6.46144 8.22562 6.48387 8.17041C6.50631 8.11519 6.51786 8.05601 6.51786 7.99624C6.51786 7.93647 6.50631 7.87729 6.48387 7.82207C6.46144 7.76685 6.42856 7.71668 6.3871 7.67442C6.34565 7.63215 6.29643 7.59863 6.24227 7.57576C6.18811 7.55288 6.13005 7.54111 6.07143 7.54111H5.44643V5.44754C5.44643 5.32683 5.39939 5.21107 5.31567 5.12571C5.23195 5.04036 5.1184 4.99241 5 4.99241H4.28571C4.16731 4.99241 4.05376 5.04036 3.97004 5.12571C3.88632 5.21107 3.83929 5.32683 3.83929 5.44754C3.83929 5.56824 3.88632 5.68401 3.97004 5.76936C4.05376 5.85471 4.16731 5.90266 4.28571 5.90266H4.55357V7.54111H3.92857ZM5.71429 3.62703C5.71429 3.82017 5.63903 4.00539 5.50508 4.14195C5.37112 4.27851 5.18944 4.35524 5 4.35524C4.81056 4.35524 4.62888 4.27851 4.49492 4.14195C4.36097 4.00539 4.28571 3.82017 4.28571 3.62703C4.28571 3.4339 4.36097 3.24868 4.49492 3.11212C4.62888 2.97556 4.81056 2.89883 5 2.89883C5.18944 2.89883 5.37112 2.97556 5.50508 3.11212C5.63903 3.24868 5.71429 3.4339 5.71429 3.62703Z" fill="white"/>
</svg>
